<svg width="914" height="400" fill="none" xmlns="http://www.w3.org/2000/svg">
  <path fill="#fff" d="M0 0h914v400H0z"/>
  <path d="M400.664 209.688c-1.914 1.102-4.293 1.654-7.137 1.654-3.153 0-5.641-.871-7.464-2.612-1.814-1.75-2.721-4.156-2.721-7.218 0-3.081.993-5.592 2.98-7.533 1.987-1.942 4.631-2.913 7.93-2.913 2.078 0 3.91.288 5.496.862v4.142c-1.513-.875-3.363-1.312-5.551-1.312-1.832 0-3.326.597-4.484 1.791-1.148 1.185-1.723 2.771-1.723 4.758 0 2.014.515 3.573 1.545 4.675 1.039 1.103 2.438 1.655 4.198 1.655 1.057 0 1.895-.151 2.515-.451v-3.829h-3.924v-3.527h8.34v9.858zm9.503 1.654c-2.334 0-4.17-.652-5.51-1.955-1.331-1.313-1.996-3.09-1.996-5.332 0-2.315.693-4.125 2.078-5.428 1.385-1.313 3.258-1.969 5.619-1.969 2.324 0 4.147.656 5.469 1.969 1.321 1.303 1.982 3.031 1.982 5.182 0 2.324-.683 4.16-2.05 5.509-1.359 1.349-3.222 2.024-5.592 2.024zm.109-11.375c-1.021 0-1.814.351-2.379 1.053-.565.701-.847 1.695-.847 2.98 0 2.689 1.084 4.033 3.253 4.033 2.069 0 3.104-1.381 3.104-4.142 0-2.616-1.044-3.924-3.131-3.924zM441.486 211v-13.535c0-.693.055-1.809.164-3.35h-.054c-.128.41-.246.766-.356 1.067-.1.3-.196.547-.287.738L434.117 211h-.779l-6.85-14.984c-.2-.456-.405-1.099-.615-1.928h-.055c.037.419.06.898.069 1.435.018.538.027 1.135.027 1.791V211h-1.777v-19.605h2.146l6.658 14.738c.137.31.269.629.397.957.137.319.26.661.369 1.025h.082c.128-.364.242-.697.342-.998.109-.301.241-.624.396-.971l6.713-14.751h2.037V211h-1.791zm14.096 0v-2.488h-.054c-.456.893-1.08 1.586-1.873 2.078-.784.492-1.673.738-2.666.738a5.528 5.528 0 01-1.832-.287 4.043 4.043 0 01-1.381-.807 3.756 3.756 0 01-.875-1.271 4.265 4.265 0 01-.301-1.627c0-1.267.392-2.274 1.176-3.022.784-.756 1.969-1.248 3.555-1.476l4.251-.615c0-2.689-1.043-4.034-3.13-4.034-1.632 0-3.145.597-4.539 1.791v-1.914c.291-.209.619-.396.984-.56a8.321 8.321 0 011.176-.438c.41-.127.829-.223 1.258-.287a7.713 7.713 0 011.271-.109c1.559 0 2.734.437 3.527 1.312.802.875 1.203 2.179 1.203 3.911V211h-1.75zm-3.609-6.795c-.629.091-1.167.205-1.613.342-.447.137-.816.323-1.108.56a2.015 2.015 0 00-.642.862c-.137.337-.205.756-.205 1.258 0 .373.064.72.191 1.039.137.319.328.597.574.834.256.227.561.405.916.533.365.127.775.191 1.231.191a3.995 3.995 0 003.049-1.34c.383-.419.679-.92.888-1.504a5.36 5.36 0 00.328-1.9v-1.381l-3.609.506zM469.228 211l-6.44-6.822h-.055V211h-1.75v-20.727h1.75v13.248h.055l6.111-6.521h2.284l-6.563 6.768 7.082 7.232h-2.474zm4.635-6.686c.009.857.123 1.627.342 2.311.218.684.533 1.262.943 1.736.41.474.907.839 1.49 1.094.593.246 1.258.369 1.996.369 1.577 0 3.067-.551 4.471-1.654v1.723c-1.34.957-2.962 1.435-4.867 1.435-.939 0-1.791-.164-2.557-.492a5.339 5.339 0 01-1.955-1.422c-.538-.629-.952-1.399-1.244-2.31-.292-.912-.437-1.951-.437-3.118 0-1.048.159-2.019.478-2.912.319-.893.761-1.663 1.326-2.31a5.989 5.989 0 012.01-1.532 5.785 5.785 0 012.543-.56c.902 0 1.7.159 2.393.478.692.31 1.271.757 1.736 1.34.474.584.834 1.295 1.08 2.133.246.839.369 1.777.369 2.816v.875h-10.117zm8.312-1.531c-.027-1.458-.373-2.588-1.039-3.39-.665-.803-1.59-1.204-2.775-1.204a4.3 4.3 0 00-1.654.315c-.502.21-.944.515-1.327.916a4.925 4.925 0 00-.957 1.449 7.341 7.341 0 00-.519 1.914h8.271zm19.374 6.863c-2.014 1.131-4.147 1.696-6.398 1.696-1.422 0-2.698-.242-3.829-.725a8.405 8.405 0 01-2.884-2.037c-.793-.875-1.404-1.914-1.832-3.117-.42-1.212-.629-2.543-.629-3.992 0-.957.1-1.878.3-2.762.21-.884.511-1.714.903-2.488a9.767 9.767 0 011.463-2.106 9.183 9.183 0 011.968-1.627 9.627 9.627 0 012.461-1.052c.894-.247 1.855-.37 2.885-.37 1.942 0 3.673.347 5.195 1.039v2.01a10.994 10.994 0 00-5.414-1.394c-1.194 0-2.274.218-3.24.656a7.308 7.308 0 00-2.474 1.805c-.675.765-1.199 1.672-1.573 2.72-.373 1.039-.565 2.17-.574 3.391-.009 1.212.146 2.333.465 3.363.328 1.021.811 1.905 1.449 2.653a6.62 6.62 0 002.365 1.75c.939.419 2.024.629 3.254.629 1.659 0 3.099-.347 4.321-1.04v-5.974h-4.457v-1.654h6.275v8.626zm4.526-5.332c.009.857.123 1.627.342 2.311.218.684.533 1.262.943 1.736.41.474.907.839 1.49 1.094.593.246 1.258.369 1.996.369 1.577 0 3.067-.551 4.471-1.654v1.723c-1.34.957-2.962 1.435-4.867 1.435-.939 0-1.791-.164-2.557-.492a5.339 5.339 0 01-1.955-1.422c-.538-.629-.952-1.399-1.244-2.31-.292-.912-.437-1.951-.437-3.118 0-1.048.159-2.019.478-2.912.319-.893.761-1.663 1.326-2.31a5.989 5.989 0 012.01-1.532 5.785 5.785 0 012.543-.56c.902 0 1.7.159 2.393.478.692.31 1.271.757 1.736 1.34.474.584.834 1.295 1.08 2.133.246.839.369 1.777.369 2.816v.875h-10.117zm8.312-1.531c-.027-1.458-.373-2.588-1.039-3.39-.665-.803-1.59-1.204-2.775-1.204-.592 0-1.144.105-1.654.315-.502.21-.944.515-1.327.916a4.925 4.925 0 00-.957 1.449 7.341 7.341 0 00-.519 1.914h8.271zM528.511 211v-8.066c0-3.163-1.148-4.745-3.445-4.745a3.9 3.9 0 00-1.696.37 4.05 4.05 0 00-1.353.998c-.374.428-.67.938-.889 1.531a5.594 5.594 0 00-.314 1.9V211h-1.75v-14h1.75v2.434h.054c1.039-1.842 2.603-2.762 4.69-2.762 1.531 0 2.698.497 3.5 1.49.802.994 1.203 2.429 1.203 4.307V211h-1.75z" fill="#333"/>
</svg>
